<?xml version="1.0" standalone="no"?><svg xmlns="http://www.w3.org/2000/svg" viewBox="0 0 1440 320"><path fill="#00A8E8" fill-opacity="1" d="M0,64L16,85.3C32,107,64,149,96,149.3C128,149,160,107,192,96C224,85,256,107,288,128C320,149,352,171,384,192C416,213,448,235,480,208C512,181,544,107,576,101.3C608,96,640,160,672,176C704,192,736,160,768,154.7C800,149,832,171,864,160C896,149,928,107,960,117.3C992,128,1024,192,1056,234.7C1088,277,1120,299,1152,304C1184,309,1216,299,1248,272C1280,245,1312,203,1344,176C1376,149,1408,139,1424,133.3L1440,128L1440,0L1424,0C1408,0,1376,0,1344,0C1312,0,1280,0,1248,0C1216,0,1184,0,1152,0C1120,0,1088,0,1056,0C1024,0,992,0,960,0C928,0,896,0,864,0C832,0,800,0,768,0C736,0,704,0,672,0C640,0,608,0,576,0C544,0,512,0,480,0C448,0,416,0,384,0C352,0,320,0,288,0C256,0,224,0,192,0C160,0,128,0,96,0C64,0,32,0,16,0L0,0Z"></path></svg>