<?xml version="1.0" standalone="no"?><svg xmlns="http://www.w3.org/2000/svg" viewBox="0 0 1440 320"><path fill="#00A8E8" fill-opacity="1" d="M0,64L16,85.3C32,107,64,149,96,149.3C128,149,160,107,192,96C224,85,256,107,288,128C320,149,352,171,384,192C416,213,448,235,480,208C512,181,544,107,576,101.3C608,96,640,160,672,176C704,192,736,160,768,154.7C800,149,832,171,864,160C896,149,928,107,960,117.3C992,128,1024,192,1056,234.7C1088,277,1120,299,1152,304C1184,309,1216,299,1248,272C1280,245,1312,203,1344,176C1376,149,1408,139,1424,133.3L1440,128L1440,320L1424,320C1408,320,1376,320,1344,320C1312,320,1280,320,1248,320C1216,320,1184,320,1152,320C1120,320,1088,320,1056,320C1024,320,992,320,960,320C928,320,896,320,864,320C832,320,800,320,768,320C736,320,704,320,672,320C640,320,608,320,576,320C544,320,512,320,480,320C448,320,416,320,384,320C352,320,320,320,288,320C256,320,224,320,192,320C160,320,128,320,96,320C64,320,32,320,16,320L0,320Z"></path></svg>